<svg width="42" height="42" viewBox="0 0 42 42" fill="none" xmlns="http://www.w3.org/2000/svg">
<path fill-rule="evenodd" clip-rule="evenodd" d="M21 42C32.5981 42 42 32.598 42 21C42 9.40198 32.5981 0 21 0C9.40186 0 0 9.40198 0 21C0 32.598 9.40186 42 21 42ZM17.0801 28.3361V29.4725H20.4399C20.4399 28.5542 20.4517 27.7391 20.4751 27.0275C20.4985 26.3157 20.5684 25.6958 20.6851 25.1677C20.8135 24.6396 21.0117 24.1978 21.2798 23.8418C21.5483 23.4745 21.9277 23.1818 22.4175 22.9636C22.9189 22.734 23.5552 22.5734 24.3252 22.4814C25.0952 22.3782 26.04 22.3265 27.1602 22.3265C28.5601 22.3265 29.7559 22.1486 30.7476 21.7927C31.7393 21.4254 32.5498 20.9203 33.1802 20.2775C33.8101 19.6345 34.271 18.877 34.5625 18.0045C34.7686 17.3793 34.9019 16.7197 34.9624 16.0256C34.9873 15.7383 35 15.4451 35 15.146C35 14.0439 34.8774 13.1027 34.6323 12.322C34.3877 11.53 34.0259 10.8699 33.5474 10.3418C33.0693 9.81372 32.48 9.39478 31.7798 9.08484C31.0801 8.7749 30.2749 8.53955 29.3652 8.37878C28.4551 8.21814 27.4399 8.11475 26.3198 8.06885C25.2002 8.02295 23.9868 8 22.6802 8C21 8 19.4424 8.01147 18.0073 8.03442C16.584 8.05737 15.2891 8.14355 14.1226 8.29272C12.9673 8.43054 11.9468 8.6543 11.0601 8.96423C10.1733 9.27429 9.42676 9.71619 8.81982 10.2902C8.2251 10.8527 7.77002 11.5702 7.45508 12.4426C7.15186 13.3151 7 14.3942 7 15.6798H10.3599C10.3599 14.9796 10.3774 14.377 10.4126 13.8718C10.459 13.3552 10.5933 12.9132 10.8149 12.5459C11.0483 12.1786 11.4102 11.8801 11.8999 11.6505C12.3901 11.4209 13.0898 11.243 14 11.1167C14.9219 10.979 16.0825 10.8871 17.4824 10.8412C18.2446 10.8102 19.1006 10.7876 20.0508 10.7733C20.8594 10.7612 21.7358 10.7551 22.6802 10.7551C24.3599 10.7551 25.7715 10.7838 26.915 10.8412C28.0581 10.8871 28.9741 11.0536 29.6626 11.3406C30.3623 11.6161 30.8643 12.0522 31.1675 12.6493C31.4707 13.2462 31.6226 14.0842 31.6226 15.1632C31.6226 16.1505 31.4883 16.9369 31.2202 17.5223C30.9517 18.0963 30.5723 18.5382 30.0825 18.8483C29.604 19.1467 29.021 19.3418 28.3325 19.4337C27.9482 19.485 27.5405 19.5219 27.1094 19.5446C26.7676 19.5625 26.4111 19.5714 26.04 19.5714C24.5469 19.5714 23.2866 19.692 22.2598 19.933C21.2451 20.1741 20.4048 20.507 19.7402 20.9318C19.0752 21.345 18.5615 21.8329 18.2002 22.3954C18.0845 22.5751 17.979 22.7595 17.8838 22.9486C17.6807 23.3513 17.5234 23.7754 17.4126 24.2207C17.249 24.8635 17.1499 25.5408 17.1152 26.2526C17.0918 26.9528 17.0801 27.6473 17.0801 28.3361ZM17.0801 35H20.4399V31.6938H17.0801V35Z" fill="#F7A92F"/>
</svg>
