<svg width="42" height="42" viewBox="0 0 42 42" fill="none" xmlns="http://www.w3.org/2000/svg">
<path fill-rule="evenodd" clip-rule="evenodd" d="M21 42C32.598 42 42 32.598 42 21C42 9.40202 32.598 0 21 0C9.40202 0 0 9.40202 0 21C0 32.598 9.40202 42 21 42ZM14.2325 34.5662C14.1469 34.5541 14.0646 34.525 13.9904 34.4807C6.82285 30.3425 4.36183 21.1579 8.50002 13.9904C12.6382 6.8228 21.8228 4.36181 28.9904 8.5C36.1579 12.6382 38.619 21.8228 34.4808 28.9904C32.1043 33.1065 28.0641 35.6668 23.6979 36.32L27.4816 38.5045C27.5571 38.5467 27.6234 38.6034 27.6767 38.6714C27.7301 38.7394 27.7694 38.8174 27.7923 38.9007C27.8153 38.984 27.8215 39.0711 27.8105 39.1568C27.7995 39.2425 27.7716 39.3252 27.7284 39.4001C27.6852 39.4749 27.6275 39.5404 27.5588 39.5928C27.49 39.6452 27.4115 39.6834 27.3279 39.7051C27.2442 39.7269 27.1571 39.7319 27.0715 39.7197C26.986 39.7075 26.9037 39.6784 26.8295 39.6341L21.1815 36.3733L21.6872 35.4974L24.4423 30.7253C24.4845 30.6498 24.5412 30.5835 24.6092 30.5302C24.6772 30.4768 24.7551 30.4375 24.8385 30.4146C24.9218 30.3916 25.0089 30.3855 25.0946 30.3964C25.1803 30.4074 25.263 30.4353 25.3379 30.4785C25.4127 30.5217 25.4782 30.5794 25.5306 30.6482C25.583 30.7169 25.6212 30.7954 25.6429 30.879C25.6647 30.9627 25.6696 31.0498 25.6575 31.1354C25.6453 31.2209 25.6162 31.3032 25.5719 31.3775L23.4587 35.0376C27.4628 34.4536 31.1688 32.1182 33.3512 28.3382C37.1369 21.7811 34.8953 13.4153 28.3382 9.6296C21.7812 5.84388 13.4153 8.08549 9.62962 14.6425C5.84391 21.1996 8.08553 29.5654 14.6426 33.3511C14.718 33.3933 14.7844 33.45 14.8377 33.518C14.891 33.586 14.9303 33.6639 14.9533 33.7473C14.9763 33.8306 14.9824 33.9176 14.9714 34.0034C14.9605 34.0891 14.9326 34.1718 14.8893 34.2466C14.8461 34.3215 14.7885 34.387 14.7197 34.4394C14.651 34.4917 14.5725 34.5299 14.4888 34.5517C14.4052 34.5735 14.3181 34.5784 14.2325 34.5662Z" fill="#F7A92F"/>
</svg>
